<?xml version="1.0" encoding="UTF-8" standalone="no"?>
<svg
   width="80"
   height="80"
   viewBox="0 0 25 24"
   fill="#343C54"
   transform="rotate(0 0 0)"
   version="1.1"
   id="svg2"
   sodipodi:docname="lni_layers.svg"
   inkscape:version="1.3.2 (091e20e, 2023-11-25, custom)"
   xmlns:inkscape="http://www.inkscape.org/namespaces/inkscape"
   xmlns:sodipodi="http://sodipodi.sourceforge.net/DTD/sodipodi-0.dtd"
   xmlns="http://www.w3.org/2000/svg"
   xmlns:svg="http://www.w3.org/2000/svg">
  <defs
     id="defs2" />
  <sodipodi:namedview
     id="namedview2"
     pagecolor="#ffffff"
     bordercolor="#000000"
     borderopacity="0.25"
     inkscape:showpageshadow="2"
     inkscape:pageopacity="0.0"
     inkscape:pagecheckerboard="0"
     inkscape:deskcolor="#d1d1d1"
     inkscape:zoom="10.2625"
     inkscape:cx="39.951279"
     inkscape:cy="40"
     inkscape:window-width="1920"
     inkscape:window-height="1017"
     inkscape:window-x="-8"
     inkscape:window-y="-8"
     inkscape:window-maximized="1"
     inkscape:current-layer="svg2" />
  <path
     fill-rule="evenodd"
     clip-rule="evenodd"
     d="m 12.919228,8.4818028 c -0.27107,-0.097164 -0.567411,-0.097164 -0.838481,0 L 7.9401577,9.9660737 c -0.5868818,0.2103813 -0.5868718,1.0403453 0,1.2507163 l 4.1405893,1.484306 c 0.27107,0.09718 0.567411,0.09718 0.838481,0 l 4.140614,-1.484306 c 0.586877,-0.210371 0.586877,-1.040335 0,-1.2507113 z m -0.585175,0.7065841 c 0.107287,-0.038461 0.224582,-0.038461 0.331869,0 l 3.91403,1.4030601 -3.91403,1.403075 c -0.107287,0.03843 -0.224582,0.03843 -0.331869,0 L 8.4200076,10.591447 Z"
     fill="#343c54"
     id="path1"
     style="stroke-width:0.500407;fill:#ffffff;fill-opacity:1" />
  <path
     d="m 7.9401577,12.783163 1.0724364,-0.384413 1.1122039,0.398674 -1.7047904,0.611147 3.9140454,1.403039 c 0.107287,0.03848 0.224582,0.03848 0.331869,0 l 3.91403,-1.403039 -1.704835,-0.611147 1.112204,-0.398674 1.072521,0.384413 c 0.586877,0.210421 0.586877,1.040395 0,1.250766 l -4.140614,1.484256 c -0.27107,0.09718 -0.567411,0.09718 -0.838481,0 L 7.9401577,14.033929 c -0.5868718,-0.210371 -0.5868818,-1.040345 0,-1.250766 z"
     fill="#343c54"
     id="path2"
     style="stroke-width:0.500407;fill:#ffffff;fill-opacity:1" />
</svg>
