<?xml version="1.0" encoding="UTF-8" standalone="no"?>
<svg
   width="80"
   height="80"
   viewBox="0 0 25 24"
   fill="#343C54"
   transform="rotate(0 0 0)"
   version="1.1"
   id="svg1"
   sodipodi:docname="lni_arrows.svg"
   inkscape:version="1.3.2 (091e20e, 2023-11-25, custom)"
   xmlns:inkscape="http://www.inkscape.org/namespaces/inkscape"
   xmlns:sodipodi="http://sodipodi.sourceforge.net/DTD/sodipodi-0.dtd"
   xmlns="http://www.w3.org/2000/svg"
   xmlns:svg="http://www.w3.org/2000/svg">
  <defs
     id="defs1" />
  <sodipodi:namedview
     id="namedview1"
     pagecolor="#ffffff"
     bordercolor="#000000"
     borderopacity="0.25"
     inkscape:showpageshadow="2"
     inkscape:pageopacity="0.0"
     inkscape:pagecheckerboard="0"
     inkscape:deskcolor="#d1d1d1"
     inkscape:zoom="10.2625"
     inkscape:cx="40"
     inkscape:cy="40"
     inkscape:window-width="1920"
     inkscape:window-height="1017"
     inkscape:window-x="-8"
     inkscape:window-y="-8"
     inkscape:window-maximized="1"
     inkscape:current-layer="svg1" />
  <path
     d="m 12.499422,6.9999394 c -0.09394,0 -0.178135,0.041663 -0.235135,0.1075189 l -1.156384,1.1563846 c -0.121387,0.1213931 -0.121387,0.3182141 0,0.4396074 0.1214,0.1213958 0.318214,0.1213932 0.439607,0 l 0.641062,-0.6410619 -1.1e-5,3.6272716 -3.6272451,-1.4e-5 0.6416212,-0.641622 c 0.121391,-0.121387 0.121396,-0.318211 0,-0.439608 -0.121393,-0.1214 -0.3182167,-0.121387 -0.439607,0 l -1.1722863,1.172286 c -0.1213906,0.121387 -0.1213932,0.318214 0,0.439607 l 1.1721809,1.172181 c 0.1213957,0.1214 0.3182174,0.121387 0.4396074,0 0.12139,-0.121387 0.121396,-0.31821 0,-0.439607 l -0.6415279,-0.641528 3.6272858,-3e-6 -2.9e-5,3.62726 -0.641359,-0.641359 c -0.121387,-0.121386 -0.318217,-0.121386 -0.439607,0 -0.121387,0.121387 -0.121387,0.318218 0,0.439609 l 1.17217,1.172169 c 0.05828,0.0583 0.137362,0.09105 0.219803,0.09103 0.08244,2.8e-5 0.161512,-0.03273 0.219804,-0.09103 l 1.172286,-1.172287 c 0.121386,-0.121387 0.121386,-0.318217 0,-0.439607 -0.121387,-0.121387 -0.318217,-0.121387 -0.439607,0 l -0.641768,0.641768 -3e-5,-3.627553 3.627576,7e-6 -0.641206,0.641205 c -0.1214,0.1214 -0.121387,0.318217 0,0.439607 0.121387,0.121387 0.318215,0.1214 0.439608,0 l 1.15852,-1.158521 C 17.459281,12.17669 17.5,12.093357 17.5,12.000512 c 4e-6,-0.08594 -0.03487,-0.163721 -0.09125,-0.22 -8.7e-5,-8.8e-5 8.8e-5,8.8e-5 0,0 l -1.172404,-1.172403 c -0.121425,-0.121426 -0.318214,-0.121387 -0.439607,0 -0.121387,0.121399 -0.121425,0.318188 0,0.439607 l 0.641944,0.641944 h -3.628399 l -1.2e-5,-3.6284147 0.6421,0.6420994 c 0.121387,0.1213932 0.318214,0.1213932 0.439607,0 0.121387,-0.1213931 0.121387,-0.3182141 0,-0.4396074 L 12.719495,7.0912546 c -0.05628,-0.05641 -0.134098,-0.091315 -0.220073,-0.091315 z"
     fill="#343c54"
     id="path1"
     style="stroke-width:0.414466;fill:#ffffff;fill-opacity:1" />
</svg>
