<?xml version="1.0" encoding="UTF-8" standalone="no"?>
<svg
   width="80"
   height="80"
   viewBox="0 0 25 24"
   fill="#343C54"
   transform="rotate(0 0 0)"
   version="1.1"
   id="svg1"
   sodipodi:docname="ini_layout.svg"
   inkscape:version="1.3.2 (091e20e, 2023-11-25, custom)"
   xmlns:inkscape="http://www.inkscape.org/namespaces/inkscape"
   xmlns:sodipodi="http://sodipodi.sourceforge.net/DTD/sodipodi-0.dtd"
   xmlns="http://www.w3.org/2000/svg"
   xmlns:svg="http://www.w3.org/2000/svg">
  <defs
     id="defs1" />
  <sodipodi:namedview
     id="namedview1"
     pagecolor="#ffffff"
     bordercolor="#000000"
     borderopacity="0.25"
     inkscape:showpageshadow="2"
     inkscape:pageopacity="0.0"
     inkscape:pagecheckerboard="0"
     inkscape:deskcolor="#d1d1d1"
     inkscape:zoom="10.2625"
     inkscape:cx="39.951279"
     inkscape:cy="40"
     inkscape:window-width="1920"
     inkscape:window-height="1017"
     inkscape:window-x="-8"
     inkscape:window-y="-8"
     inkscape:window-maximized="1"
     inkscape:current-layer="svg1" />
  <path
     fill-rule="evenodd"
     clip-rule="evenodd"
     d="M 8.7857172,6.9999885 C 8.0756356,6.9999885 7.5,7.5756241 7.5,8.2857057 v 7.4285893 c 0,0.710057 0.5756356,1.285716 1.2857172,1.285716 h 7.4285658 c 0.710116,0 1.285717,-0.575659 1.285717,-1.285716 V 8.2857057 C 17.5,7.5756241 16.924399,6.9999885 16.214283,6.9999885 Z M 8.3571448,8.2857057 c 0,-0.2366919 0.1918747,-0.4285724 0.4285724,-0.4285724 h 7.4285658 c 0.236743,0 0.428572,0.1918805 0.428572,0.4285724 V 10.04743 H 8.3571448 Z m 0,2.6188633 v 4.809726 c 0,0.236686 0.1918747,0.428572 0.4285724,0.428572 h 1.7617238 v -5.238298 z m 3.0474122,0 v 2.190291 h 5.238298 v -2.190291 z m 0,3.047436 h 5.238298 v 1.76229 c 0,0.236686 -0.191829,0.428572 -0.428572,0.428572 h -4.809726 z"
     fill="#343c54"
     id="path1"
     style="stroke-width:0.57143;fill:#ffffff;fill-opacity:1" />
</svg>
