<?xml version="1.0" encoding="UTF-8" standalone="no"?>
<svg
   width="80"
   height="80"
   viewBox="0 0 24 24"
   fill="#343C54"
   transform="rotate(0 0 0)"
   version="1.1"
   id="svg1"
   sodipodi:docname="lni_envelope.svg"
   inkscape:version="1.3.2 (091e20e, 2023-11-25, custom)"
   xmlns:inkscape="http://www.inkscape.org/namespaces/inkscape"
   xmlns:sodipodi="http://sodipodi.sourceforge.net/DTD/sodipodi-0.dtd"
   xmlns="http://www.w3.org/2000/svg"
   xmlns:svg="http://www.w3.org/2000/svg">
  <defs
     id="defs1" />
  <sodipodi:namedview
     id="namedview1"
     pagecolor="#ffffff"
     bordercolor="#000000"
     borderopacity="0.25"
     inkscape:showpageshadow="2"
     inkscape:pageopacity="0.0"
     inkscape:pagecheckerboard="0"
     inkscape:deskcolor="#d1d1d1"
     showgrid="false"
     inkscape:zoom="10.2625"
     inkscape:cx="39.951279"
     inkscape:cy="40"
     inkscape:window-width="1920"
     inkscape:window-height="1017"
     inkscape:window-x="-8"
     inkscape:window-y="-8"
     inkscape:window-maximized="1"
     inkscape:current-layer="svg1" />
  <path
     fill-rule="evenodd"
     clip-rule="evenodd"
     d="M 23.999955,12.702596 V 17.1 c 0,0.49704 -0.453328,0.9 -1.012495,0.9 H 16.012495 C 15.45331,18 15,17.59704 15,17.1 v -4.406408 c 0,-0.0041 9.4e-5,-0.0082 2.74e-4,-0.01226 C 15.007974,12.303888 15.354652,12 15.78116,12 h 7.437779 c 0.431323,0 0.781016,0.310788 0.781061,0.694196 0,0.0028 0,0.0056 -4.5e-5,0.0084 z M 15.674997,13.4748 V 17.1 c 0,0.16568 0.151104,0.3 0.337498,0.3 h 6.974965 c 0.186389,0 0.337498,-0.13432 0.337498,-0.3 V 13.474988 L 20.07926,15.48684 c -0.347939,0.21568 -0.810311,0.21568 -1.15825,0 z m 7.649961,-0.78336 v 0.0022 0.0038 c -0.0011,0.02967 -0.01782,0.05723 -0.04536,0.07428 l -3.586437,2.223064 c -0.115964,0.07188 -0.270088,0.07188 -0.386098,0 l -3.586545,-2.22314 c -0.02842,-0.01762 -0.04536,-0.04647 -0.04538,-0.07727 -1.5e-5,-0.05216 0.04745,-0.09437 0.106022,-0.09437 h 7.437779 c 0.05751,0 0.104354,0.04068 0.106019,0.09144 z"
     fill="#343C54"
     id="path1"
     style="fill:#1e7b33;fill-opacity:1;stroke-width:0.424263" />
</svg>
