<?xml version="1.0" encoding="UTF-8" standalone="no"?>
<svg
   width="80"
   height="80"
   viewBox="0 0 25 24"
   fill="#343C54"
   transform="rotate(0 0 0)"
   version="1.1"
   id="svg1"
   sodipodi:docname="lni_box_gift.svg"
   inkscape:version="1.3.2 (091e20e, 2023-11-25, custom)"
   xmlns:inkscape="http://www.inkscape.org/namespaces/inkscape"
   xmlns:sodipodi="http://sodipodi.sourceforge.net/DTD/sodipodi-0.dtd"
   xmlns="http://www.w3.org/2000/svg"
   xmlns:svg="http://www.w3.org/2000/svg">
  <defs
     id="defs1" />
  <sodipodi:namedview
     id="namedview1"
     pagecolor="#ffffff"
     bordercolor="#000000"
     borderopacity="0.25"
     inkscape:showpageshadow="2"
     inkscape:pageopacity="0.0"
     inkscape:pagecheckerboard="0"
     inkscape:deskcolor="#d1d1d1"
     showgrid="false"
     inkscape:zoom="10.2625"
     inkscape:cx="39.951279"
     inkscape:cy="40"
     inkscape:window-width="1920"
     inkscape:window-height="1017"
     inkscape:window-x="-8"
     inkscape:window-y="-8"
     inkscape:window-maximized="1"
     inkscape:current-layer="svg1" />
  <path
     fill-rule="evenodd"
     clip-rule="evenodd"
     d="M 10.08532,8.2245939 C 9.98641,8.0245989 9.930831,7.7993583 9.930831,7.5611352 c 0,-0.8276748 0.67097,-1.4986352 1.498671,-1.4986352 0.419334,0 0.798419,0.1722317 1.070458,0.4498075 C 12.771942,6.2347317 13.151027,6.0625 13.570419,6.0625 c 0.82765,0 1.498642,0.6709604 1.498642,1.4986352 0,0.2382231 -0.05561,0.4634637 -0.154489,0.6634587 h 1.300878 c 0.709471,0 1.28455,0.5751105 1.28455,1.2845441 v 0.264274 c 0,0.465291 -0.247375,0.872799 -0.617783,1.098194 v 4.896341 c 0,0.709411 -0.575135,1.284545 -1.284549,1.284545 H 9.402367 c -0.709437,0 -1.28455,-0.575134 -1.28455,-1.284545 V 10.871606 C 7.747393,10.646211 7.5,10.238703 7.5,9.773412 V 9.509138 C 7.5,8.7997044 8.075113,8.2245939 8.78455,8.2245939 Z M 13.570419,6.918863 c -0.354764,0 -0.642275,0.2875552 -0.642275,0.6422722 v 0.6422722 h 0.642275 c 0.354707,0 0.642275,-0.2875552 0.642275,-0.6422722 0,-0.354717 -0.287568,-0.6422722 -0.642275,-0.6422722 z M 12.071777,8.2034074 V 7.5611352 c 0,-0.354717 -0.287568,-0.6422722 -0.642275,-0.6422722 -0.354764,0 -0.642304,0.2875552 -0.642304,0.6422722 0,0.354717 0.28754,0.6422722 0.642304,0.6422722 z m 3.954074,2.8545436 H 8.974184 v 4.709996 c 0,0.23647 0.191701,0.428182 0.428183,0.428182 h 6.195301 c 0.236471,0 0.428183,-0.191712 0.428183,-0.428182 z m 0.189599,-0.856358 c 0.236528,0 0.428184,-0.191705 0.428184,-0.428181 V 9.509138 c 0,-0.2364757 -0.191656,-0.4281812 -0.428184,-0.4281812 h -7.4309 c -0.236477,0 -0.428183,0.1917055 -0.428183,0.4281812 v 0.264274 c 0,0.236476 0.191706,0.428181 0.428183,0.428181 z"
     fill="#343C54"
     id="path1"
     style="fill:#ffffff;fill-opacity:1;stroke-width:0.570909" />
</svg>
