<?xml version="1.0" encoding="utf-8"?>
<svg viewBox="0 0 500 500" xmlns="http://www.w3.org/2000/svg">
  <ellipse style="stroke: rgb(0, 0, 0); fill: rgb(255, 255, 255); stroke-width: 0px;" cx="89.1" cy="244.4" rx="62.982" ry="62.982"/>
  <path d="M 69.593 201.783 L 108.606 201.783 C 121.369 201.783 131.716 212.13 131.716 224.893 L 131.716 263.906 C 131.716 276.67 121.369 287.016 108.606 287.016 L 69.593 287.016 C 56.829 287.016 46.483 276.67 46.483 263.906 L 46.483 224.893 C 46.483 212.13 56.829 201.783 69.593 201.783 Z" style="stroke: rgb(0, 0, 0); stroke-width: 0px; fill: rgb(27, 121, 49);"/>
  <g transform="matrix(1, 0, 0, 1, 19.061295, 3.025308)">
    <g>
      <ellipse style="stroke: rgb(0, 0, 0); fill: rgb(254, 254, 226); stroke-width: 0px;" cx="51.491" cy="224.87" rx="3.468" ry="3.468"/>
      <line style="stroke-linecap: round; fill: rgb(254, 254, 226); stroke-width: 0px;" x1="45.506" y1="244.008" x2="45.506" y2="231.369"/>
      <path d="M 45.506 245.42 C 44.725 245.42 44.093 244.788 44.093 244.008 L 44.093 231.369 C 44.093 230.589 44.725 229.957 45.506 229.957 C 46.285 229.957 46.918 230.589 46.918 231.369 L 46.918 244.008 C 46.918 244.788 46.285 245.42 45.506 245.42 Z" style="fill: rgb(254, 254, 226); stroke-width: 0px;"/>
      <line style="stroke-linecap: round; fill: rgb(254, 254, 226); stroke-width: 0px;" x1="49.513" y1="259.832" x2="49.513" y2="230.393"/>
      <path d="M 49.513 261.501 C 48.591 261.501 47.844 260.754 47.844 259.832 L 47.844 230.393 C 47.844 229.472 48.591 228.725 49.513 228.725 C 50.435 228.725 51.182 229.472 51.182 230.393 L 51.182 259.832 C 51.182 260.754 50.435 261.501 49.513 261.501 Z" style="fill: rgb(254, 254, 226); stroke-width: 0px;"/>
      <path d="M 49.513 261.501 C 48.591 261.501 47.844 260.754 47.844 259.832 L 47.844 230.393 C 47.844 229.472 48.591 228.725 49.513 228.725 C 50.435 228.725 51.182 229.472 51.182 230.393 L 51.182 259.832 C 51.182 260.754 50.435 261.501 49.513 261.501 Z" style="fill: rgb(254, 254, 226); stroke-width: 0px;"/>
      <path d="M 49.513 261.501 C 48.591 261.501 47.844 260.754 47.844 259.832 L 47.844 230.393 C 47.844 229.472 48.591 228.725 49.513 228.725 C 50.435 228.725 51.182 229.472 51.182 230.393 L 51.182 259.832 C 51.182 260.754 50.435 261.501 49.513 261.501 Z" style="fill: rgb(254, 254, 226); stroke-width: 0px;"/>
      <path d="M 49.333 261.501 C 48.369 261.501 47.587 260.754 47.587 259.832 L 47.587 230.393 C 47.587 229.472 48.369 228.725 49.333 228.725 C 50.298 228.725 51.08 229.472 51.08 230.393 L 51.08 259.832 C 51.08 260.754 50.298 261.501 49.333 261.501 Z" style="fill: rgb(254, 254, 226); stroke-width: 0px;"/>
      <line style="stroke-linecap: round; fill: rgb(254, 254, 226); stroke-width: 0px;" x1="45.506" y1="231.216" x2="49.513" y2="229.829"/>
      <path d="M 44.171 231.678 C 43.916 230.941 44.307 230.136 45.043 229.881 L 49.051 228.494 C 49.788 228.239 50.593 228.63 50.848 229.367 C 51.103 230.104 50.712 230.908 49.975 231.163 L 45.968 232.55 C 45.231 232.805 44.426 232.415 44.171 231.678 Z" style="fill: rgb(254, 254, 226); stroke-width: 0px;"/>
      <path d="M 57.63 229.88 C 56.851 229.88 56.218 230.513 56.218 231.292 L 56.218 243.931 C 56.218 244.711 56.851 245.343 57.63 245.343 C 58.411 245.343 59.043 244.711 59.043 243.931 L 59.043 231.292 C 59.043 230.513 58.411 229.88 57.63 229.88 Z" style="fill: rgb(254, 254, 226); stroke-width: 0px; transform-origin: 57.63px 237.612px;" transform="matrix(-1, 0, 0, -1, -0.000011, -0.000004)"/>
      <path d="M 53.803 228.647 C 52.838 228.647 52.057 229.395 52.057 230.317 L 52.057 259.755 C 52.057 260.677 52.838 261.425 53.803 261.425 C 54.767 261.425 55.549 260.677 55.549 259.755 L 55.549 230.317 C 55.549 229.395 54.767 228.647 53.803 228.647 Z" style="fill: rgb(254, 254, 226); stroke-width: 0px; transform-origin: 53.803px 245.036px;" transform="matrix(-1, 0, 0, -1, -0.000001, 0.000013)"/>
      <path d="M 52.288 229.289 C 52.033 230.026 52.424 230.831 53.161 231.086 L 57.169 232.473 C 57.906 232.729 58.71 232.337 58.965 231.601 C 59.221 230.864 58.83 230.059 58.093 229.804 L 54.085 228.417 C 53.348 228.162 52.543 228.553 52.288 229.289 Z" style="fill: rgb(254, 254, 226); stroke-width: 0px; transform-origin: 55.627px 230.446px;" transform="matrix(-1, 0, 0, -1, -0.000008, -0.000001)"/>
      <path d="M 51.593 227.286 C 50.26 227.286 49.179 228.019 49.179 228.924 L 49.179 243.578 C 49.179 244.482 50.26 245.215 51.593 245.215 C 52.927 245.215 54.007 244.482 54.007 243.578 L 54.007 228.924 C 54.007 228.019 52.927 227.286 51.593 227.286 Z" style="fill: rgb(254, 254, 226); stroke-width: 0px; transform-origin: 51.593px 236.251px;" transform="matrix(-1, 0, 0, -1, 0.000014, -0.000015)"/>
    </g>
    <g transform="matrix(1, 0, 0, 1, 0.077736, -0.192993)">
      <ellipse style="stroke: rgb(0, 0, 0); fill: rgb(254, 254, 226); stroke-width: 0px;" cx="69.884" cy="225.063" rx="3.468" ry="3.468"/>
      <line style="stroke-linecap: round; fill: rgb(254, 254, 226); stroke-width: 0px;" x1="63.898" y1="244.201" x2="63.898" y2="231.563"/>
      <path d="M 63.898 245.614 C 63.118 245.614 62.486 244.981 62.486 244.201 L 62.486 231.563 C 62.486 230.782 63.118 230.15 63.898 230.15 C 64.678 230.15 65.31 230.782 65.31 231.563 L 65.31 244.201 C 65.31 244.981 64.678 245.614 63.898 245.614 Z" style="fill: rgb(254, 254, 226); stroke-width: 0px;"/>
      <line style="stroke-linecap: round; fill: rgb(254, 254, 226); stroke-width: 0px;" x1="67.906" y1="260.025" x2="67.906" y2="230.586"/>
      <path d="M 67.906 261.694 C 66.984 261.694 66.236 260.947 66.236 260.025 L 66.236 230.586 C 66.236 229.665 66.984 228.917 67.906 228.917 C 68.828 228.917 69.575 229.665 69.575 230.586 L 69.575 260.025 C 69.575 260.947 68.828 261.694 67.906 261.694 Z" style="fill: rgb(254, 254, 226); stroke-width: 0px;"/>
      <path d="M 67.906 261.694 C 66.984 261.694 66.236 260.947 66.236 260.025 L 66.236 230.586 C 66.236 229.665 66.984 228.917 67.906 228.917 C 68.828 228.917 69.575 229.665 69.575 230.586 L 69.575 260.025 C 69.575 260.947 68.828 261.694 67.906 261.694 Z" style="fill: rgb(254, 254, 226); stroke-width: 0px;"/>
      <path d="M 67.906 261.694 C 66.984 261.694 66.236 260.947 66.236 260.025 L 66.236 230.586 C 66.236 229.665 66.984 228.917 67.906 228.917 C 68.828 228.917 69.575 229.665 69.575 230.586 L 69.575 260.025 C 69.575 260.947 68.828 261.694 67.906 261.694 Z" style="fill: rgb(254, 254, 226); stroke-width: 0px;"/>
      <path d="M 67.726 261.694 C 66.762 261.694 65.98 260.947 65.98 260.025 L 65.98 230.586 C 65.98 229.665 66.762 228.917 67.726 228.917 C 68.691 228.917 69.472 229.665 69.472 230.586 L 69.472 260.025 C 69.472 260.947 68.691 261.694 67.726 261.694 Z" style="fill: rgb(254, 254, 226); stroke-width: 0px;"/>
      <line style="stroke-linecap: round; fill: rgb(254, 254, 226); stroke-width: 0px;" x1="63.898" y1="231.409" x2="67.906" y2="230.021"/>
      <path d="M 62.564 231.871 C 62.308 231.134 62.699 230.329 63.436 230.074 L 67.444 228.687 C 68.18 228.432 68.985 228.823 69.24 229.56 C 69.495 230.297 69.105 231.101 68.368 231.356 L 64.36 232.743 C 63.623 232.998 62.818 232.608 62.564 231.871 Z" style="fill: rgb(254, 254, 226); stroke-width: 0px;"/>
      <path d="M 76.023 230.074 C 75.243 230.074 74.611 230.706 74.611 231.486 L 74.611 244.125 C 74.611 244.904 75.243 245.536 76.023 245.536 C 76.803 245.536 77.435 244.904 77.435 244.125 L 77.435 231.486 C 77.435 230.706 76.803 230.074 76.023 230.074 Z" style="fill: rgb(254, 254, 226); stroke-width: 0px; transform-origin: 76.023px 237.805px;" transform="matrix(-1, 0, 0, -1, -0.000009, 0.000011)"/>
      <path d="M 72.195 228.841 C 71.231 228.841 70.449 229.588 70.449 230.51 L 70.449 259.948 C 70.449 260.87 71.231 261.617 72.195 261.617 C 73.16 261.617 73.941 260.87 73.941 259.948 L 73.941 230.51 C 73.941 229.588 73.16 228.841 72.195 228.841 Z" style="fill: rgb(254, 254, 226); stroke-width: 0px; transform-origin: 72.195px 245.229px;" transform="matrix(-1, 0, 0, -1, -0.000005, -0.000002)"/>
      <path d="M 70.681 229.483 C 70.426 230.22 70.817 231.024 71.554 231.279 L 75.561 232.667 C 76.298 232.922 77.102 232.531 77.358 231.794 C 77.613 231.057 77.222 230.253 76.485 229.998 L 72.477 228.61 C 71.74 228.355 70.936 228.746 70.681 229.483 Z" style="fill: rgb(254, 254, 226); stroke-width: 0px; transform-origin: 74.019px 230.638px;" transform="matrix(-1, 0, 0, -1, 0.00002, 0.000001)"/>
      <path d="M 69.986 227.479 C 68.653 227.479 67.572 228.212 67.572 229.117 L 67.572 243.771 C 67.572 244.676 68.653 245.408 69.986 245.408 C 71.319 245.408 72.4 244.676 72.4 243.771 L 72.4 229.117 C 72.4 228.212 71.319 227.479 69.986 227.479 Z" style="fill: rgb(254, 254, 226); stroke-width: 0px; transform-origin: 69.986px 236.444px;" transform="matrix(-1, 0, 0, -1, -0.000016, 0)"/>
    </g>
    <g transform="matrix(1, 0, 0, 1, 0, -0.192993)">
      <ellipse style="stroke: rgb(0, 0, 0); fill: rgb(254, 254, 226); stroke-width: 0px;" cx="88.43" cy="224.909" rx="3.468" ry="3.468"/>
      <line style="stroke-linecap: round; fill: rgb(254, 254, 226); stroke-width: 0px;" x1="82.445" y1="244.047" x2="82.445" y2="231.408"/>
      <path d="M 82.445 245.459 C 81.665 245.459 81.033 244.827 81.033 244.047 L 81.033 231.408 C 81.033 230.628 81.665 229.996 82.445 229.996 C 83.225 229.996 83.857 230.628 83.857 231.408 L 83.857 244.047 C 83.857 244.827 83.225 245.459 82.445 245.459 Z" style="fill: rgb(254, 254, 226); stroke-width: 0px;"/>
      <line style="stroke-linecap: round; fill: rgb(254, 254, 226); stroke-width: 0px;" x1="86.452" y1="259.871" x2="86.452" y2="230.432"/>
      <path d="M 86.452 261.54 C 85.531 261.54 84.784 260.793 84.784 259.871 L 84.784 230.432 C 84.784 229.511 85.531 228.763 86.452 228.763 C 87.374 228.763 88.122 229.511 88.122 230.432 L 88.122 259.871 C 88.122 260.793 87.374 261.54 86.452 261.54 Z" style="fill: rgb(254, 254, 226); stroke-width: 0px;"/>
      <path d="M 86.452 261.54 C 85.531 261.54 84.784 260.793 84.784 259.871 L 84.784 230.432 C 84.784 229.511 85.531 228.763 86.452 228.763 C 87.374 228.763 88.122 229.511 88.122 230.432 L 88.122 259.871 C 88.122 260.793 87.374 261.54 86.452 261.54 Z" style="fill: rgb(254, 254, 226); stroke-width: 0px;"/>
      <path d="M 86.452 261.54 C 85.531 261.54 84.784 260.793 84.784 259.871 L 84.784 230.432 C 84.784 229.511 85.531 228.763 86.452 228.763 C 87.374 228.763 88.122 229.511 88.122 230.432 L 88.122 259.871 C 88.122 260.793 87.374 261.54 86.452 261.54 Z" style="fill: rgb(254, 254, 226); stroke-width: 0px;"/>
      <path d="M 86.273 261.54 C 85.308 261.54 84.527 260.793 84.527 259.871 L 84.527 230.432 C 84.527 229.511 85.308 228.763 86.273 228.763 C 87.237 228.763 88.019 229.511 88.019 230.432 L 88.019 259.871 C 88.019 260.793 87.237 261.54 86.273 261.54 Z" style="fill: rgb(254, 254, 226); stroke-width: 0px;"/>
      <line style="stroke-linecap: round; fill: rgb(254, 254, 226); stroke-width: 0px;" x1="82.445" y1="231.254" x2="86.452" y2="229.867"/>
      <path d="M 81.11 231.716 C 80.855 230.98 81.246 230.175 81.983 229.92 L 85.991 228.533 C 86.728 228.277 87.532 228.668 87.787 229.405 C 88.042 230.142 87.651 230.947 86.914 231.201 L 82.907 232.589 C 82.17 232.844 81.366 232.453 81.11 231.716 Z" style="fill: rgb(254, 254, 226); stroke-width: 0px;"/>
      <path d="M 94.57 229.919 C 93.79 229.919 93.158 230.551 93.158 231.331 L 93.158 243.97 C 93.158 244.75 93.79 245.382 94.57 245.382 C 95.35 245.382 95.983 244.75 95.983 243.97 L 95.983 231.331 C 95.983 230.551 95.35 229.919 94.57 229.919 Z" style="fill: rgb(254, 254, 226); stroke-width: 0px; transform-origin: 94.57px 237.65px;" transform="matrix(-1, 0, 0, -1, 0.000011, 0.000019)"/>
      <path d="M 90.743 228.686 C 89.778 228.686 88.996 229.433 88.996 230.355 L 88.996 259.794 C 88.996 260.716 89.778 261.463 90.743 261.463 C 91.707 261.463 92.489 260.716 92.489 259.794 L 92.489 230.355 C 92.489 229.433 91.707 228.686 90.743 228.686 Z" style="fill: rgb(254, 254, 226); stroke-width: 0px; transform-origin: 90.743px 245.075px;" transform="matrix(-1, 0, 0, -1, -0.000003, 0.000003)"/>
      <path d="M 89.228 229.328 C 88.973 230.065 89.363 230.87 90.1 231.125 L 94.108 232.512 C 94.845 232.767 95.65 232.376 95.905 231.639 C 96.16 230.902 95.769 230.098 95.032 229.843 L 91.025 228.456 C 90.288 228.201 89.483 228.591 89.228 229.328 Z" style="fill: rgb(254, 254, 226); stroke-width: 0px; transform-origin: 92.567px 230.484px;" transform="matrix(-1, 0, 0, -1, 0.000007, 0.000006)"/>
      <path d="M 88.533 227.325 C 87.199 227.325 86.119 228.058 86.119 228.962 L 86.119 243.617 C 86.119 244.521 87.199 245.254 88.533 245.254 C 89.867 245.254 90.947 244.521 90.947 243.617 L 90.947 228.962 C 90.947 228.058 89.867 227.325 88.533 227.325 Z" style="fill: rgb(254, 254, 226); stroke-width: 0px; transform-origin: 88.533px 236.289px;" transform="matrix(-1, 0, 0, -1, 0.000004, -0.000009)"/>
    </g>
  </g>
  <text style="fill: rgb(51, 51, 51); font-family: Arial, sans-serif; font-size: 62px; font-weight: 700; white-space: pre;" x="163.348" y="266.601">TeamGlade</text>
</svg>