<?xml version="1.0" encoding="utf-8"?>
<svg fill="none" height="55" viewBox="0 0 157 55" width="157" xmlns="http://www.w3.org/2000/svg">
  <ellipse style="stroke: rgb(0, 0, 0); fill: rgb(255, 255, 255); stroke-width: 0px;" cx="21.919" cy="26.497" rx="20.57" ry="20.57"/>
  <path d="M 15.815 12.579 L 28.557 12.579 C 32.725 12.579 36.104 15.959 36.104 20.127 L 36.104 32.868 C 36.104 37.036 32.725 40.415 28.557 40.415 L 15.815 40.415 C 11.646 40.415 8.268 37.036 8.268 32.868 L 8.268 20.127 C 8.268 15.959 11.646 12.579 15.815 12.579 Z" style="stroke: rgb(0, 0, 0); stroke-width: 0px; fill: rgb(27, 121, 49);"/>
  <path d="M 17.261 21.107 C 17.261 21.51 17.051 21.863 16.734 22.064 C 16.807 22.116 16.864 22.178 16.901 22.247 C 16.926 22.251 16.951 22.257 16.976 22.266 L 18.285 22.719 C 18.487 22.789 18.61 22.987 18.594 23.192 C 18.594 23.196 18.594 23.2 18.594 23.204 L 18.594 27.332 C 18.594 27.586 18.388 27.793 18.133 27.793 C 17.878 27.793 17.672 27.586 17.672 27.332 L 17.672 23.483 L 17.453 23.408 L 17.453 32.5 C 17.453 32.801 17.198 33.045 16.883 33.045 C 16.568 33.045 16.313 32.801 16.313 32.5 L 16.313 27.742 C 16.264 27.749 16.213 27.752 16.161 27.752 C 16.115 27.752 16.071 27.749 16.027 27.744 L 16.027 32.526 C 16.027 32.827 15.783 33.071 15.482 33.071 C 15.472 33.071 15.463 33.071 15.453 33.07 C 15.443 33.071 15.433 33.071 15.423 33.071 C 15.108 33.071 14.853 32.827 14.853 32.526 L 14.853 23.432 L 14.634 23.508 L 14.634 27.357 C 14.634 27.612 14.428 27.819 14.173 27.819 C 13.918 27.819 13.712 27.612 13.712 27.357 L 13.712 23.23 C 13.712 23.222 13.712 23.215 13.713 23.208 C 13.7 23.006 13.822 22.813 14.022 22.744 L 15.331 22.291 C 15.356 22.282 15.382 22.276 15.408 22.271 C 15.439 22.203 15.491 22.14 15.558 22.086 C 15.221 21.89 14.995 21.525 14.995 21.107 C 14.995 20.481 15.502 19.974 16.128 19.974 C 16.754 19.974 17.261 20.481 17.261 21.107 Z M 23.293 21.107 C 23.293 21.577 23.007 21.98 22.599 22.152 C 22.664 22.178 22.722 22.211 22.773 22.248 C 22.849 22.234 22.93 22.239 23.008 22.266 L 24.316 22.719 C 24.517 22.788 24.64 22.983 24.626 23.186 C 24.626 23.191 24.626 23.197 24.626 23.203 L 24.626 27.331 C 24.626 27.586 24.419 27.792 24.165 27.792 C 23.91 27.792 23.703 27.586 23.703 27.331 L 23.703 23.483 L 23.485 23.407 L 23.485 32.5 C 23.485 32.801 23.23 33.045 22.915 33.045 C 22.6 33.045 22.345 32.801 22.345 32.5 L 22.345 27.922 C 22.296 27.929 22.246 27.932 22.194 27.932 C 22.148 27.932 22.103 27.929 22.059 27.924 L 22.059 32.526 C 22.059 32.827 21.816 33.071 21.514 33.071 C 21.504 33.071 21.495 33.071 21.486 33.07 C 21.476 33.071 21.466 33.071 21.456 33.071 C 21.141 33.071 20.885 32.827 20.885 32.526 L 20.885 23.432 L 20.667 23.507 L 20.667 27.357 C 20.667 27.612 20.46 27.819 20.205 27.819 C 19.951 27.819 19.744 27.612 19.744 27.357 L 19.744 23.23 C 19.744 23.221 19.744 23.212 19.745 23.202 C 19.734 23.003 19.856 22.812 20.054 22.744 L 21.363 22.291 C 21.437 22.265 21.514 22.259 21.586 22.271 C 21.635 22.231 21.692 22.195 21.757 22.166 C 21.33 22.004 21.027 21.591 21.027 21.107 C 21.027 20.481 21.534 19.974 22.16 19.974 C 22.786 19.974 23.293 20.481 23.293 21.107 Z M 29.325 21.057 C 29.325 21.459 29.116 21.812 28.801 22.013 C 28.873 22.065 28.93 22.127 28.967 22.195 C 28.991 22.2 29.015 22.206 29.039 22.214 L 30.348 22.667 C 30.55 22.736 30.672 22.932 30.658 23.135 C 30.658 23.141 30.658 23.148 30.658 23.154 L 30.658 27.282 C 30.658 27.537 30.451 27.743 30.197 27.743 C 29.942 27.743 29.735 27.537 29.735 27.282 L 29.735 23.431 L 29.519 23.356 L 29.519 32.451 C 29.519 32.752 29.264 32.996 28.948 32.996 C 28.634 32.996 28.378 32.752 28.378 32.451 L 28.378 27.69 C 28.329 27.697 28.278 27.7 28.226 27.7 C 28.18 27.7 28.136 27.697 28.092 27.692 L 28.092 32.475 C 28.092 32.776 27.847 33.02 27.546 33.02 C 27.536 33.02 27.527 33.02 27.518 33.019 C 27.508 33.02 27.498 33.02 27.488 33.02 C 27.172 33.02 26.917 32.776 26.917 32.475 L 26.917 23.382 L 26.699 23.457 L 26.699 27.307 C 26.699 27.562 26.492 27.768 26.237 27.768 C 25.983 27.768 25.776 27.562 25.776 27.307 L 25.776 23.179 C 25.776 23.172 25.776 23.164 25.777 23.157 C 25.765 22.955 25.887 22.763 26.087 22.693 L 27.396 22.24 C 27.422 22.231 27.447 22.225 27.473 22.221 C 27.505 22.152 27.556 22.09 27.622 22.036 C 27.285 21.84 27.059 21.475 27.059 21.057 C 27.059 20.431 27.566 19.924 28.192 19.924 C 28.818 19.924 29.325 20.431 29.325 21.057 Z" style="stroke: rgb(0, 0, 0); fill: rgb(254, 254, 226); stroke-width: 0px;"/>
  <path d="M 53.499 33.748 L 53.499 21.735 L 49.208 21.735 L 49.208 19.288 L 60.699 19.288 L 60.699 21.735 L 56.418 21.735 L 56.418 33.748 L 53.499 33.748 Z M 67.129 30.414 L 69.89 30.878 C 69.536 31.891 68.975 32.662 68.209 33.191 C 67.443 33.72 66.485 33.985 65.333 33.985 C 63.512 33.985 62.164 33.39 61.289 32.199 C 60.599 31.246 60.254 30.043 60.254 28.59 C 60.254 26.854 60.708 25.494 61.615 24.511 C 62.523 23.528 63.67 23.036 65.057 23.036 C 66.616 23.036 67.846 23.551 68.746 24.58 C 69.647 25.609 70.078 27.186 70.038 29.31 L 63.094 29.31 C 63.114 30.131 63.338 30.771 63.765 31.228 C 64.193 31.685 64.725 31.913 65.363 31.913 C 65.797 31.913 66.162 31.795 66.458 31.558 C 66.754 31.321 66.978 30.94 67.129 30.414 Z M 67.286 27.613 C 67.267 26.811 67.06 26.201 66.665 25.783 C 66.271 25.366 65.791 25.157 65.225 25.157 C 64.621 25.157 64.121 25.377 63.726 25.818 C 63.332 26.259 63.138 26.857 63.144 27.613 L 67.286 27.613 Z M 74.368 26.469 L 71.853 26.015 C 72.136 25.002 72.622 24.253 73.312 23.766 C 74.003 23.279 75.029 23.036 76.39 23.036 C 77.626 23.036 78.547 23.182 79.151 23.475 C 79.757 23.768 80.183 24.139 80.429 24.59 C 80.676 25.041 80.799 25.868 80.799 27.071 L 80.769 30.306 C 80.769 31.227 80.814 31.905 80.902 32.342 C 80.991 32.779 81.157 33.248 81.4 33.748 L 78.658 33.748 C 78.586 33.564 78.498 33.291 78.392 32.929 C 78.346 32.765 78.313 32.657 78.293 32.604 C 77.82 33.064 77.314 33.409 76.774 33.64 C 76.236 33.87 75.66 33.985 75.048 33.985 C 73.97 33.985 73.121 33.692 72.499 33.107 C 71.878 32.522 71.567 31.782 71.567 30.888 C 71.567 30.296 71.709 29.768 71.991 29.305 C 72.274 28.841 72.67 28.486 73.179 28.239 C 73.689 27.992 74.424 27.777 75.384 27.593 C 76.68 27.35 77.577 27.123 78.076 26.913 L 78.076 26.637 C 78.076 26.104 77.945 25.724 77.682 25.497 C 77.419 25.27 76.922 25.157 76.192 25.157 C 75.7 25.157 75.315 25.254 75.038 25.448 C 74.762 25.642 74.539 25.982 74.368 26.469 Z M 78.076 28.718 C 77.722 28.836 77.16 28.977 76.39 29.142 C 75.621 29.306 75.118 29.467 74.881 29.625 C 74.519 29.882 74.338 30.207 74.338 30.602 C 74.338 30.99 74.483 31.325 74.772 31.608 C 75.062 31.891 75.43 32.032 75.877 32.032 C 76.377 32.032 76.853 31.868 77.307 31.539 C 77.643 31.289 77.863 30.983 77.968 30.621 C 78.04 30.384 78.076 29.934 78.076 29.27 L 78.076 28.718 Z M 83.323 23.273 L 85.878 23.273 L 85.878 24.703 C 86.792 23.592 87.88 23.036 89.142 23.036 C 89.813 23.036 90.395 23.174 90.888 23.451 C 91.382 23.727 91.786 24.144 92.101 24.703 C 92.562 24.144 93.059 23.727 93.591 23.451 C 94.124 23.174 94.693 23.036 95.297 23.036 C 96.067 23.036 96.718 23.192 97.25 23.505 C 97.783 23.817 98.181 24.276 98.443 24.881 C 98.634 25.328 98.729 26.052 98.729 27.051 L 98.729 33.748 L 95.958 33.748 L 95.958 27.761 C 95.958 26.722 95.863 26.052 95.672 25.749 C 95.416 25.354 95.021 25.157 94.488 25.157 C 94.1 25.157 93.735 25.275 93.393 25.512 C 93.052 25.749 92.806 26.096 92.654 26.553 C 92.503 27.01 92.427 27.731 92.427 28.718 L 92.427 33.748 L 89.655 33.748 L 89.655 28.008 C 89.655 26.989 89.606 26.331 89.507 26.035 C 89.409 25.739 89.256 25.519 89.049 25.374 C 88.842 25.229 88.561 25.157 88.205 25.157 C 87.778 25.157 87.393 25.272 87.051 25.502 C 86.709 25.733 86.465 26.065 86.317 26.498 C 86.169 26.932 86.095 27.652 86.095 28.659 L 86.095 33.748 L 83.323 33.748 L 83.323 23.273 Z M 108.237 28.432 L 108.237 25.995 L 114.53 25.995 L 114.53 31.756 C 113.919 32.347 113.033 32.868 111.872 33.319 C 110.712 33.77 109.536 33.995 108.346 33.995 C 106.834 33.995 105.515 33.678 104.391 33.043 C 103.267 32.408 102.422 31.501 101.856 30.321 C 101.29 29.14 101.007 27.856 101.007 26.469 C 101.007 24.963 101.323 23.625 101.954 22.455 C 102.586 21.284 103.51 20.387 104.726 19.762 C 105.654 19.282 106.808 19.042 108.188 19.042 C 109.984 19.042 111.386 19.418 112.395 20.171 C 113.405 20.924 114.054 21.965 114.343 23.293 L 111.443 23.835 C 111.239 23.125 110.856 22.565 110.294 22.154 C 109.732 21.743 109.03 21.537 108.188 21.537 C 106.912 21.537 105.898 21.941 105.145 22.75 C 104.393 23.559 104.016 24.76 104.016 26.351 C 104.016 28.067 104.398 29.354 105.16 30.212 C 105.923 31.07 106.922 31.499 108.158 31.499 C 108.77 31.499 109.384 31.379 109.998 31.139 C 110.613 30.899 111.141 30.608 111.581 30.266 L 111.581 28.432 L 108.237 28.432 Z M 117.203 33.748 L 117.203 19.288 L 119.975 19.288 L 119.975 33.748 L 117.203 33.748 Z M 124.887 26.469 L 122.371 26.015 C 122.655 25.002 123.141 24.253 123.831 23.766 C 124.522 23.279 125.548 23.036 126.909 23.036 C 128.145 23.036 129.066 23.182 129.67 23.475 C 130.276 23.768 130.702 24.139 130.948 24.59 C 131.194 25.041 131.317 25.868 131.317 27.071 L 131.288 30.306 C 131.288 31.227 131.333 31.905 131.421 32.342 C 131.51 32.779 131.676 33.248 131.919 33.748 L 129.177 33.748 C 129.105 33.564 129.017 33.291 128.911 32.929 C 128.865 32.765 128.832 32.657 128.812 32.604 C 128.339 33.064 127.833 33.409 127.293 33.64 C 126.754 33.87 126.179 33.985 125.567 33.985 C 124.489 33.985 123.64 33.692 123.018 33.107 C 122.396 32.522 122.085 31.782 122.085 30.888 C 122.085 30.296 122.227 29.768 122.51 29.305 C 122.793 28.841 123.189 28.486 123.698 28.239 C 124.208 27.992 124.943 27.777 125.903 27.593 C 127.199 27.35 128.096 27.123 128.595 26.913 L 128.595 26.637 C 128.595 26.104 128.464 25.724 128.201 25.497 C 127.938 25.27 127.441 25.157 126.711 25.157 C 126.219 25.157 125.834 25.254 125.557 25.448 C 125.281 25.642 125.058 25.982 124.887 26.469 Z M 128.595 28.718 C 128.241 28.836 127.679 28.977 126.909 29.142 C 126.14 29.306 125.637 29.467 125.399 29.625 C 125.038 29.882 124.857 30.207 124.857 30.602 C 124.857 30.99 125.002 31.325 125.291 31.608 C 125.581 31.891 125.949 32.032 126.396 32.032 C 126.896 32.032 127.372 31.868 127.826 31.539 C 128.162 31.289 128.382 30.983 128.487 30.621 C 128.559 30.384 128.595 29.934 128.595 29.27 L 128.595 28.718 Z M 143.656 33.748 L 141.082 33.748 L 141.082 32.209 C 140.654 32.808 140.15 33.253 139.568 33.546 C 138.986 33.839 138.399 33.985 137.807 33.985 C 136.604 33.985 135.573 33.5 134.715 32.53 C 133.857 31.56 133.428 30.207 133.428 28.471 C 133.428 26.696 133.846 25.346 134.68 24.422 C 135.516 23.498 136.571 23.036 137.846 23.036 C 139.017 23.036 140.03 23.523 140.884 24.496 L 140.884 19.288 L 143.656 19.288 L 143.656 33.748 Z M 136.258 28.284 C 136.258 29.402 136.413 30.211 136.722 30.71 C 137.17 31.433 137.794 31.795 138.596 31.795 C 139.234 31.795 139.777 31.524 140.223 30.981 C 140.671 30.439 140.894 29.629 140.894 28.55 C 140.894 27.347 140.677 26.48 140.243 25.951 C 139.809 25.422 139.254 25.157 138.576 25.157 C 137.919 25.157 137.368 25.418 136.924 25.941 C 136.48 26.464 136.258 27.245 136.258 28.284 Z M 152.454 30.414 L 155.215 30.878 C 154.861 31.891 154.3 32.662 153.534 33.191 C 152.768 33.72 151.81 33.985 150.659 33.985 C 148.837 33.985 147.489 33.39 146.615 32.199 C 145.925 31.246 145.579 30.043 145.579 28.59 C 145.579 26.854 146.033 25.494 146.94 24.511 C 147.848 23.528 148.995 23.036 150.382 23.036 C 151.941 23.036 153.171 23.551 154.071 24.58 C 154.973 25.609 155.403 27.186 155.363 29.31 L 148.42 29.31 C 148.44 30.131 148.663 30.771 149.09 31.228 C 149.518 31.685 150.05 31.913 150.688 31.913 C 151.122 31.913 151.487 31.795 151.783 31.558 C 152.079 31.321 152.303 30.94 152.454 30.414 Z M 152.612 27.613 C 152.592 26.811 152.385 26.201 151.99 25.783 C 151.596 25.366 151.116 25.157 150.55 25.157 C 149.946 25.157 149.446 25.377 149.051 25.818 C 148.657 26.259 148.463 26.857 148.469 27.613 L 152.612 27.613 Z" style="fill: rgb(255, 255, 255);"/>
</svg>