<?xml version="1.0" encoding="utf-8"?>
<svg fill="none" height="55" viewBox="0 0 157 55" width="157" xmlns="http://www.w3.org/2000/svg">
  <ellipse style="stroke: rgb(0, 0, 0); fill: rgb(255, 255, 255); stroke-width: 0px;" cx="25.288" cy="25.666" rx="19.986" ry="19.986"/>
  <path d="M 19.097 12.144 L 31.477 12.144 C 35.527 12.144 38.81 15.427 38.81 19.477 L 38.81 31.857 C 38.81 35.907 35.527 39.189 31.477 39.189 L 19.097 39.189 C 15.047 39.189 11.764 35.907 11.764 31.857 L 11.764 19.477 C 11.764 15.427 15.047 12.144 19.097 12.144 Z" style="stroke: rgb(0, 0, 0); stroke-width: 0px; fill: rgb(27, 121, 49);"/>
  <g transform="matrix(0.317316, 0, 0, 0.317316, 3.062697, -50.925205)" style="">
    <g>
      <ellipse style="stroke: rgb(0, 0, 0); fill: rgb(254, 254, 226); stroke-width: 0px;" cx="51.491" cy="224.87" rx="3.468" ry="3.468"/>
      <line style="stroke-linecap: round; fill: rgb(254, 254, 226); stroke-width: 0px;" x1="45.506" y1="244.008" x2="45.506" y2="231.369"/>
      <path d="M 45.506 245.42 C 44.725 245.42 44.093 244.788 44.093 244.008 L 44.093 231.369 C 44.093 230.589 44.725 229.957 45.506 229.957 C 46.285 229.957 46.918 230.589 46.918 231.369 L 46.918 244.008 C 46.918 244.788 46.285 245.42 45.506 245.42 Z" style="fill: rgb(254, 254, 226); stroke-width: 0px;"/>
      <line style="stroke-linecap: round; fill: rgb(254, 254, 226); stroke-width: 0px;" x1="49.513" y1="259.832" x2="49.513" y2="230.393"/>
      <path d="M 49.513 261.501 C 48.591 261.501 47.844 260.754 47.844 259.832 L 47.844 230.393 C 47.844 229.472 48.591 228.725 49.513 228.725 C 50.435 228.725 51.182 229.472 51.182 230.393 L 51.182 259.832 C 51.182 260.754 50.435 261.501 49.513 261.501 Z" style="fill: rgb(254, 254, 226); stroke-width: 0px;"/>
      <path d="M 49.513 261.501 C 48.591 261.501 47.844 260.754 47.844 259.832 L 47.844 230.393 C 47.844 229.472 48.591 228.725 49.513 228.725 C 50.435 228.725 51.182 229.472 51.182 230.393 L 51.182 259.832 C 51.182 260.754 50.435 261.501 49.513 261.501 Z" style="fill: rgb(254, 254, 226); stroke-width: 0px;"/>
      <path d="M 49.513 261.501 C 48.591 261.501 47.844 260.754 47.844 259.832 L 47.844 230.393 C 47.844 229.472 48.591 228.725 49.513 228.725 C 50.435 228.725 51.182 229.472 51.182 230.393 L 51.182 259.832 C 51.182 260.754 50.435 261.501 49.513 261.501 Z" style="fill: rgb(254, 254, 226); stroke-width: 0px;"/>
      <path d="M 49.333 261.501 C 48.369 261.501 47.587 260.754 47.587 259.832 L 47.587 230.393 C 47.587 229.472 48.369 228.725 49.333 228.725 C 50.298 228.725 51.08 229.472 51.08 230.393 L 51.08 259.832 C 51.08 260.754 50.298 261.501 49.333 261.501 Z" style="fill: rgb(254, 254, 226); stroke-width: 0px;"/>
      <line style="stroke-linecap: round; fill: rgb(254, 254, 226); stroke-width: 0px;" x1="45.506" y1="231.216" x2="49.513" y2="229.829"/>
      <path d="M 44.171 231.678 C 43.916 230.941 44.307 230.136 45.043 229.881 L 49.051 228.494 C 49.788 228.239 50.593 228.63 50.848 229.367 C 51.103 230.104 50.712 230.908 49.975 231.163 L 45.968 232.55 C 45.231 232.805 44.426 232.415 44.171 231.678 Z" style="fill: rgb(254, 254, 226); stroke-width: 0px;"/>
      <path d="M 57.63 229.88 C 56.851 229.88 56.218 230.513 56.218 231.292 L 56.218 243.931 C 56.218 244.711 56.851 245.343 57.63 245.343 C 58.411 245.343 59.043 244.711 59.043 243.931 L 59.043 231.292 C 59.043 230.513 58.411 229.88 57.63 229.88 Z" style="fill: rgb(254, 254, 226); stroke-width: 0px; transform-origin: 57.63px 237.612px;" transform="matrix(-1, 0, 0, -1, -0.000011, -0.000004)"/>
      <path d="M 53.803 228.647 C 52.838 228.647 52.057 229.395 52.057 230.317 L 52.057 259.755 C 52.057 260.677 52.838 261.425 53.803 261.425 C 54.767 261.425 55.549 260.677 55.549 259.755 L 55.549 230.317 C 55.549 229.395 54.767 228.647 53.803 228.647 Z" style="fill: rgb(254, 254, 226); stroke-width: 0px; transform-origin: 53.803px 245.036px;" transform="matrix(-1, 0, 0, -1, -0.000001, 0.000013)"/>
      <path d="M 52.288 229.289 C 52.033 230.026 52.424 230.831 53.161 231.086 L 57.169 232.473 C 57.906 232.729 58.71 232.337 58.965 231.601 C 59.221 230.864 58.83 230.059 58.093 229.804 L 54.085 228.417 C 53.348 228.162 52.543 228.553 52.288 229.289 Z" style="fill: rgb(254, 254, 226); stroke-width: 0px; transform-origin: 55.627px 230.446px;" transform="matrix(-1, 0, 0, -1, -0.000008, -0.000001)"/>
      <path d="M 51.593 227.286 C 50.26 227.286 49.179 228.019 49.179 228.924 L 49.179 243.578 C 49.179 244.482 50.26 245.215 51.593 245.215 C 52.927 245.215 54.007 244.482 54.007 243.578 L 54.007 228.924 C 54.007 228.019 52.927 227.286 51.593 227.286 Z" style="fill: rgb(254, 254, 226); stroke-width: 0px; transform-origin: 51.593px 236.251px;" transform="matrix(-1, 0, 0, -1, 0.000014, -0.000015)"/>
    </g>
    <g transform="matrix(1, 0, 0, 1, 0.077736, -0.192993)">
      <ellipse style="stroke: rgb(0, 0, 0); fill: rgb(254, 254, 226); stroke-width: 0px;" cx="69.884" cy="225.063" rx="3.468" ry="3.468"/>
      <line style="stroke-linecap: round; fill: rgb(254, 254, 226); stroke-width: 0px;" x1="63.898" y1="244.201" x2="63.898" y2="231.563"/>
      <path d="M 63.898 245.614 C 63.118 245.614 62.486 244.981 62.486 244.201 L 62.486 231.563 C 62.486 230.782 63.118 230.15 63.898 230.15 C 64.678 230.15 65.31 230.782 65.31 231.563 L 65.31 244.201 C 65.31 244.981 64.678 245.614 63.898 245.614 Z" style="fill: rgb(254, 254, 226); stroke-width: 0px;"/>
      <line style="stroke-linecap: round; fill: rgb(254, 254, 226); stroke-width: 0px;" x1="67.906" y1="260.025" x2="67.906" y2="230.586"/>
      <path d="M 67.906 261.694 C 66.984 261.694 66.236 260.947 66.236 260.025 L 66.236 230.586 C 66.236 229.665 66.984 228.917 67.906 228.917 C 68.828 228.917 69.575 229.665 69.575 230.586 L 69.575 260.025 C 69.575 260.947 68.828 261.694 67.906 261.694 Z" style="fill: rgb(254, 254, 226); stroke-width: 0px;"/>
      <path d="M 67.906 261.694 C 66.984 261.694 66.236 260.947 66.236 260.025 L 66.236 230.586 C 66.236 229.665 66.984 228.917 67.906 228.917 C 68.828 228.917 69.575 229.665 69.575 230.586 L 69.575 260.025 C 69.575 260.947 68.828 261.694 67.906 261.694 Z" style="fill: rgb(254, 254, 226); stroke-width: 0px;"/>
      <path d="M 67.906 261.694 C 66.984 261.694 66.236 260.947 66.236 260.025 L 66.236 230.586 C 66.236 229.665 66.984 228.917 67.906 228.917 C 68.828 228.917 69.575 229.665 69.575 230.586 L 69.575 260.025 C 69.575 260.947 68.828 261.694 67.906 261.694 Z" style="fill: rgb(254, 254, 226); stroke-width: 0px;"/>
      <path d="M 67.726 261.694 C 66.762 261.694 65.98 260.947 65.98 260.025 L 65.98 230.586 C 65.98 229.665 66.762 228.917 67.726 228.917 C 68.691 228.917 69.472 229.665 69.472 230.586 L 69.472 260.025 C 69.472 260.947 68.691 261.694 67.726 261.694 Z" style="fill: rgb(254, 254, 226); stroke-width: 0px;"/>
      <line style="stroke-linecap: round; fill: rgb(254, 254, 226); stroke-width: 0px;" x1="63.898" y1="231.409" x2="67.906" y2="230.021"/>
      <path d="M 62.564 231.871 C 62.308 231.134 62.699 230.329 63.436 230.074 L 67.444 228.687 C 68.18 228.432 68.985 228.823 69.24 229.56 C 69.495 230.297 69.105 231.101 68.368 231.356 L 64.36 232.743 C 63.623 232.998 62.818 232.608 62.564 231.871 Z" style="fill: rgb(254, 254, 226); stroke-width: 0px;"/>
      <path d="M 76.023 230.074 C 75.243 230.074 74.611 230.706 74.611 231.486 L 74.611 244.125 C 74.611 244.904 75.243 245.536 76.023 245.536 C 76.803 245.536 77.435 244.904 77.435 244.125 L 77.435 231.486 C 77.435 230.706 76.803 230.074 76.023 230.074 Z" style="fill: rgb(254, 254, 226); stroke-width: 0px; transform-origin: 76.023px 237.805px;" transform="matrix(-1, 0, 0, -1, -0.000009, 0.000011)"/>
      <path d="M 72.195 228.841 C 71.231 228.841 70.449 229.588 70.449 230.51 L 70.449 259.948 C 70.449 260.87 71.231 261.617 72.195 261.617 C 73.16 261.617 73.941 260.87 73.941 259.948 L 73.941 230.51 C 73.941 229.588 73.16 228.841 72.195 228.841 Z" style="fill: rgb(254, 254, 226); stroke-width: 0px; transform-origin: 72.195px 245.229px;" transform="matrix(-1, 0, 0, -1, -0.000005, -0.000002)"/>
      <path d="M 70.681 229.483 C 70.426 230.22 70.817 231.024 71.554 231.279 L 75.561 232.667 C 76.298 232.922 77.102 232.531 77.358 231.794 C 77.613 231.057 77.222 230.253 76.485 229.998 L 72.477 228.61 C 71.74 228.355 70.936 228.746 70.681 229.483 Z" style="fill: rgb(254, 254, 226); stroke-width: 0px; transform-origin: 74.019px 230.638px;" transform="matrix(-1, 0, 0, -1, 0.00002, 0.000001)"/>
      <path d="M 69.986 227.479 C 68.653 227.479 67.572 228.212 67.572 229.117 L 67.572 243.771 C 67.572 244.676 68.653 245.408 69.986 245.408 C 71.319 245.408 72.4 244.676 72.4 243.771 L 72.4 229.117 C 72.4 228.212 71.319 227.479 69.986 227.479 Z" style="fill: rgb(254, 254, 226); stroke-width: 0px; transform-origin: 69.986px 236.444px;" transform="matrix(-1, 0, 0, -1, -0.000016, 0)"/>
    </g>
    <g transform="matrix(1, 0, 0, 1, 0, -0.192993)">
      <ellipse style="stroke: rgb(0, 0, 0); fill: rgb(254, 254, 226); stroke-width: 0px;" cx="88.43" cy="224.909" rx="3.468" ry="3.468"/>
      <line style="stroke-linecap: round; fill: rgb(254, 254, 226); stroke-width: 0px;" x1="82.445" y1="244.047" x2="82.445" y2="231.408"/>
      <path d="M 82.445 245.459 C 81.665 245.459 81.033 244.827 81.033 244.047 L 81.033 231.408 C 81.033 230.628 81.665 229.996 82.445 229.996 C 83.225 229.996 83.857 230.628 83.857 231.408 L 83.857 244.047 C 83.857 244.827 83.225 245.459 82.445 245.459 Z" style="fill: rgb(254, 254, 226); stroke-width: 0px;"/>
      <line style="stroke-linecap: round; fill: rgb(254, 254, 226); stroke-width: 0px;" x1="86.452" y1="259.871" x2="86.452" y2="230.432"/>
      <path d="M 86.452 261.54 C 85.531 261.54 84.784 260.793 84.784 259.871 L 84.784 230.432 C 84.784 229.511 85.531 228.763 86.452 228.763 C 87.374 228.763 88.122 229.511 88.122 230.432 L 88.122 259.871 C 88.122 260.793 87.374 261.54 86.452 261.54 Z" style="fill: rgb(254, 254, 226); stroke-width: 0px;"/>
      <path d="M 86.452 261.54 C 85.531 261.54 84.784 260.793 84.784 259.871 L 84.784 230.432 C 84.784 229.511 85.531 228.763 86.452 228.763 C 87.374 228.763 88.122 229.511 88.122 230.432 L 88.122 259.871 C 88.122 260.793 87.374 261.54 86.452 261.54 Z" style="fill: rgb(254, 254, 226); stroke-width: 0px;"/>
      <path d="M 86.452 261.54 C 85.531 261.54 84.784 260.793 84.784 259.871 L 84.784 230.432 C 84.784 229.511 85.531 228.763 86.452 228.763 C 87.374 228.763 88.122 229.511 88.122 230.432 L 88.122 259.871 C 88.122 260.793 87.374 261.54 86.452 261.54 Z" style="fill: rgb(254, 254, 226); stroke-width: 0px;"/>
      <path d="M 86.273 261.54 C 85.308 261.54 84.527 260.793 84.527 259.871 L 84.527 230.432 C 84.527 229.511 85.308 228.763 86.273 228.763 C 87.237 228.763 88.019 229.511 88.019 230.432 L 88.019 259.871 C 88.019 260.793 87.237 261.54 86.273 261.54 Z" style="fill: rgb(254, 254, 226); stroke-width: 0px;"/>
      <line style="stroke-linecap: round; fill: rgb(254, 254, 226); stroke-width: 0px;" x1="82.445" y1="231.254" x2="86.452" y2="229.867"/>
      <path d="M 81.11 231.716 C 80.855 230.98 81.246 230.175 81.983 229.92 L 85.991 228.533 C 86.728 228.277 87.532 228.668 87.787 229.405 C 88.042 230.142 87.651 230.947 86.914 231.201 L 82.907 232.589 C 82.17 232.844 81.366 232.453 81.11 231.716 Z" style="fill: rgb(254, 254, 226); stroke-width: 0px;"/>
      <path d="M 94.57 229.919 C 93.79 229.919 93.158 230.551 93.158 231.331 L 93.158 243.97 C 93.158 244.75 93.79 245.382 94.57 245.382 C 95.35 245.382 95.983 244.75 95.983 243.97 L 95.983 231.331 C 95.983 230.551 95.35 229.919 94.57 229.919 Z" style="fill: rgb(254, 254, 226); stroke-width: 0px; transform-origin: 94.57px 237.65px;" transform="matrix(-1, 0, 0, -1, 0.000011, 0.000019)"/>
      <path d="M 90.743 228.686 C 89.778 228.686 88.996 229.433 88.996 230.355 L 88.996 259.794 C 88.996 260.716 89.778 261.463 90.743 261.463 C 91.707 261.463 92.489 260.716 92.489 259.794 L 92.489 230.355 C 92.489 229.433 91.707 228.686 90.743 228.686 Z" style="fill: rgb(254, 254, 226); stroke-width: 0px; transform-origin: 90.743px 245.075px;" transform="matrix(-1, 0, 0, -1, -0.000003, 0.000003)"/>
      <path d="M 89.228 229.328 C 88.973 230.065 89.363 230.87 90.1 231.125 L 94.108 232.512 C 94.845 232.767 95.65 232.376 95.905 231.639 C 96.16 230.902 95.769 230.098 95.032 229.843 L 91.025 228.456 C 90.288 228.201 89.483 228.591 89.228 229.328 Z" style="fill: rgb(254, 254, 226); stroke-width: 0px; transform-origin: 92.567px 230.484px;" transform="matrix(-1, 0, 0, -1, 0.000007, 0.000006)"/>
      <path d="M 88.533 227.325 C 87.199 227.325 86.119 228.058 86.119 228.962 L 86.119 243.617 C 86.119 244.521 87.199 245.254 88.533 245.254 C 89.867 245.254 90.947 244.521 90.947 243.617 L 90.947 228.962 C 90.947 228.058 89.867 227.325 88.533 227.325 Z" style="fill: rgb(254, 254, 226); stroke-width: 0px; transform-origin: 88.533px 236.289px;" transform="matrix(-1, 0, 0, -1, 0.000004, -0.000009)"/>
    </g>
  </g>
  <path d="M 52.718 31.909 L 52.718 21.493 L 48.997 21.493 L 48.997 19.371 L 58.961 19.371 L 58.961 21.493 L 55.248 21.493 L 55.248 31.909 L 52.718 31.909 Z M 64.535 29.018 L 66.931 29.421 C 66.623 30.298 66.137 30.968 65.473 31.427 C 64.809 31.885 63.977 32.115 62.98 32.115 C 61.4 32.115 60.231 31.598 59.473 30.566 C 58.874 29.74 58.575 28.697 58.575 27.437 C 58.575 25.931 58.969 24.753 59.754 23.9 C 60.542 23.047 61.536 22.621 62.74 22.621 C 64.091 22.621 65.158 23.067 65.938 23.96 C 66.719 24.852 67.093 26.219 67.059 28.061 L 61.037 28.061 C 61.054 28.773 61.249 29.328 61.619 29.724 C 61.99 30.12 62.452 30.318 63.005 30.318 C 63.381 30.318 63.697 30.217 63.954 30.01 C 64.211 29.806 64.404 29.475 64.535 29.018 Z M 64.672 26.59 C 64.656 25.894 64.476 25.365 64.134 25.003 C 63.792 24.642 63.376 24.46 62.885 24.46 C 62.361 24.46 61.927 24.651 61.585 25.033 C 61.243 25.416 61.075 25.934 61.08 26.59 L 64.672 26.59 Z M 70.813 25.598 L 68.632 25.204 C 68.877 24.326 69.299 23.676 69.899 23.253 C 70.497 22.832 71.386 22.621 72.567 22.621 C 73.638 22.621 74.436 22.749 74.961 23.002 C 75.486 23.256 75.855 23.577 76.069 23.968 C 76.282 24.359 76.389 25.075 76.389 26.12 L 76.364 28.925 C 76.364 29.723 76.403 30.312 76.479 30.69 C 76.557 31.069 76.7 31.476 76.911 31.909 L 74.534 31.909 C 74.471 31.75 74.394 31.513 74.302 31.199 C 74.263 31.057 74.234 30.962 74.218 30.917 C 73.807 31.316 73.368 31.616 72.9 31.815 C 72.433 32.015 71.934 32.115 71.404 32.115 C 70.468 32.115 69.731 31.861 69.192 31.353 C 68.654 30.846 68.385 30.205 68.385 29.429 C 68.385 28.917 68.506 28.459 68.751 28.057 C 68.998 27.654 69.34 27.346 69.782 27.133 C 70.224 26.919 70.861 26.732 71.694 26.572 C 72.817 26.362 73.595 26.165 74.029 25.982 L 74.029 25.744 C 74.029 25.282 73.915 24.952 73.686 24.756 C 73.459 24.559 73.029 24.46 72.396 24.46 C 71.967 24.46 71.634 24.544 71.394 24.713 C 71.155 24.88 70.962 25.176 70.813 25.598 Z M 74.029 27.548 C 73.721 27.65 73.234 27.773 72.567 27.915 C 71.899 28.058 71.462 28.198 71.258 28.334 C 70.944 28.556 70.788 28.839 70.788 29.182 C 70.788 29.518 70.914 29.808 71.164 30.053 C 71.414 30.298 71.734 30.421 72.121 30.421 C 72.555 30.421 72.969 30.278 73.362 29.994 C 73.653 29.777 73.844 29.512 73.935 29.198 C 73.998 28.993 74.029 28.602 74.029 28.026 L 74.029 27.548 Z M 78.578 22.826 L 80.794 22.826 L 80.794 24.066 C 81.587 23.103 82.53 22.621 83.624 22.621 C 84.207 22.621 84.711 22.741 85.139 22.98 C 85.567 23.22 85.916 23.581 86.191 24.066 C 86.59 23.581 87.02 23.22 87.481 22.98 C 87.943 22.741 88.437 22.621 88.962 22.621 C 89.629 22.621 90.194 22.757 90.654 23.027 C 91.116 23.299 91.462 23.696 91.689 24.22 C 91.855 24.608 91.938 25.236 91.938 26.102 L 91.938 31.909 L 89.535 31.909 L 89.535 26.718 C 89.535 25.817 89.452 25.236 89.286 24.974 C 89.064 24.631 88.723 24.46 88.261 24.46 C 87.925 24.46 87.607 24.563 87.311 24.768 C 87.014 24.974 86.801 25.274 86.67 25.67 C 86.539 26.066 86.473 26.693 86.473 27.548 L 86.473 31.909 L 84.07 31.909 L 84.07 26.931 C 84.07 26.047 84.027 25.478 83.942 25.221 C 83.856 24.964 83.723 24.774 83.544 24.648 C 83.363 24.523 83.12 24.46 82.812 24.46 C 82.442 24.46 82.107 24.56 81.812 24.76 C 81.516 24.959 81.303 25.247 81.174 25.623 C 81.046 25.999 80.981 26.623 80.981 27.496 L 80.981 31.909 L 78.578 31.909 L 78.578 22.826 Z M 100.183 27.299 L 100.183 25.187 L 105.64 25.187 L 105.64 30.182 C 105.11 30.695 104.341 31.147 103.334 31.538 C 102.329 31.928 101.309 32.123 100.278 32.123 C 98.966 32.123 97.822 31.849 96.848 31.298 C 95.873 30.748 95.139 29.961 94.649 28.938 C 94.159 27.914 93.914 26.801 93.914 25.598 C 93.914 24.292 94.188 23.132 94.735 22.117 C 95.283 21.102 96.083 20.324 97.138 19.782 C 97.943 19.365 98.943 19.158 100.14 19.158 C 101.697 19.158 102.913 19.483 103.788 20.137 C 104.664 20.79 105.226 21.692 105.478 22.844 L 102.962 23.314 C 102.787 22.698 102.453 22.212 101.966 21.856 C 101.479 21.499 100.871 21.321 100.14 21.321 C 99.034 21.321 98.155 21.672 97.503 22.374 C 96.849 23.075 96.522 24.116 96.522 25.495 C 96.522 26.983 96.853 28.1 97.515 28.843 C 98.176 29.587 99.043 29.959 100.115 29.959 C 100.645 29.959 101.176 29.855 101.71 29.648 C 102.243 29.439 102.701 29.187 103.083 28.891 L 103.083 27.299 L 100.183 27.299 Z M 107.957 31.909 L 107.957 19.371 L 110.361 19.371 L 110.361 31.909 L 107.957 31.909 Z M 114.621 25.598 L 112.44 25.204 C 112.685 24.326 113.106 23.676 113.705 23.253 C 114.303 22.832 115.194 22.621 116.373 22.621 C 117.446 22.621 118.244 22.749 118.768 23.002 C 119.293 23.256 119.661 23.577 119.876 23.968 C 120.09 24.359 120.197 25.075 120.197 26.12 L 120.171 28.925 C 120.171 29.723 120.209 30.312 120.287 30.69 C 120.363 31.069 120.507 31.476 120.718 31.909 L 118.341 31.909 C 118.278 31.75 118.201 31.513 118.11 31.199 C 118.069 31.057 118.041 30.962 118.024 30.917 C 117.613 31.316 117.175 31.616 116.707 31.815 C 116.239 32.015 115.74 32.115 115.21 32.115 C 114.275 32.115 113.538 31.861 112.999 31.353 C 112.46 30.846 112.191 30.205 112.191 29.429 C 112.191 28.917 112.314 28.459 112.559 28.057 C 112.804 27.654 113.148 27.346 113.59 27.133 C 114.032 26.919 114.669 26.732 115.502 26.572 C 116.625 26.362 117.403 26.165 117.835 25.982 L 117.835 25.744 C 117.835 25.282 117.721 24.952 117.494 24.756 C 117.266 24.559 116.835 24.46 116.202 24.46 C 115.775 24.46 115.441 24.544 115.202 24.713 C 114.962 24.88 114.768 25.176 114.621 25.598 Z M 117.835 27.548 C 117.529 27.65 117.04 27.773 116.373 27.915 C 115.706 28.058 115.27 28.198 115.065 28.334 C 114.752 28.556 114.594 28.839 114.594 29.182 C 114.594 29.518 114.72 29.808 114.97 30.053 C 115.222 30.298 115.54 30.421 115.929 30.421 C 116.362 30.421 116.775 30.278 117.168 29.994 C 117.46 29.777 117.65 29.512 117.741 29.198 C 117.804 28.993 117.835 28.602 117.835 28.026 L 117.835 27.548 Z M 130.895 31.909 L 128.664 31.909 L 128.664 30.575 C 128.293 31.093 127.855 31.48 127.35 31.733 C 126.845 31.988 126.337 32.115 125.824 32.115 C 124.781 32.115 123.887 31.695 123.142 30.852 C 122.398 30.012 122.026 28.839 122.026 27.334 C 122.026 25.794 122.388 24.624 123.113 23.822 C 123.837 23.022 124.752 22.621 125.857 22.621 C 126.874 22.621 127.75 23.043 128.492 23.887 L 128.492 19.371 L 130.895 19.371 L 130.895 31.909 Z M 124.481 27.171 C 124.481 28.14 124.615 28.842 124.883 29.275 C 125.271 29.902 125.812 30.217 126.508 30.217 C 127.061 30.217 127.531 29.981 127.919 29.511 C 128.307 29.04 128.5 28.337 128.5 27.402 C 128.5 26.358 128.313 25.607 127.937 25.149 C 127.56 24.69 127.078 24.46 126.491 24.46 C 125.92 24.46 125.444 24.687 125.058 25.14 C 124.674 25.594 124.481 26.27 124.481 27.171 Z M 138.524 29.018 L 140.918 29.421 C 140.61 30.298 140.124 30.968 139.46 31.427 C 138.796 31.885 137.964 32.115 136.967 32.115 C 135.387 32.115 134.218 31.598 133.461 30.566 C 132.862 29.74 132.562 28.697 132.562 27.437 C 132.562 25.931 132.956 24.753 133.743 23.9 C 134.529 23.047 135.524 22.621 136.727 22.621 C 138.078 22.621 139.145 23.067 139.926 23.96 C 140.708 24.852 141.081 26.219 141.046 28.061 L 135.026 28.061 C 135.043 28.773 135.237 29.328 135.607 29.724 C 135.978 30.12 136.439 30.318 136.992 30.318 C 137.369 30.318 137.686 30.217 137.942 30.01 C 138.199 29.806 138.393 29.475 138.524 29.018 Z M 138.661 26.59 C 138.643 25.894 138.464 25.365 138.121 25.003 C 137.78 24.642 137.363 24.46 136.873 24.46 C 136.348 24.46 135.915 24.651 135.573 25.033 C 135.23 25.416 135.063 25.934 135.068 26.59 L 138.661 26.59 Z" style="fill: rgb(255, 255, 255);"/>
</svg>