<?xml version="1.0" encoding="utf-8"?>
<svg fill="none" height="100" viewBox="0 0 526 100" width="526" xmlns="http://www.w3.org/2000/svg">
  <clipPath id="b">
    <path d="m0 10h100v79.68h-100z"/>
  </clipPath>
  <g clip-path="url(#b)" transform="matrix(1, 0, 0, 1, 208.988525, 0)"/>
  <path d="M 241.677 31.739 C 241.677 33.085 240.976 34.263 239.917 34.934 C 240.161 35.108 240.351 35.315 240.475 35.545 C 240.558 35.559 240.642 35.579 240.725 35.609 L 245.096 37.121 C 245.771 37.355 246.181 38.016 246.128 38.701 C 246.128 38.714 246.128 38.727 246.128 38.741 L 246.128 52.524 C 246.128 53.372 245.44 54.064 244.589 54.064 C 243.737 54.064 243.049 53.372 243.049 52.524 L 243.049 39.672 L 242.318 39.422 L 242.318 69.781 C 242.318 70.786 241.467 71.6 240.415 71.6 C 239.363 71.6 238.512 70.786 238.512 69.781 L 238.512 53.893 C 238.348 53.917 238.178 53.927 238.004 53.927 C 237.85 53.927 237.704 53.917 237.557 53.9 L 237.557 69.867 C 237.557 70.872 236.742 71.687 235.737 71.687 C 235.703 71.687 235.673 71.687 235.64 71.684 C 235.607 71.687 235.573 71.687 235.54 71.687 C 234.488 71.687 233.637 70.872 233.637 69.867 L 233.637 39.502 L 232.905 39.756 L 232.905 52.608 C 232.905 53.459 232.217 54.15 231.366 54.15 C 230.515 54.15 229.827 53.459 229.827 52.608 L 229.827 38.828 C 229.827 38.801 229.827 38.778 229.83 38.754 C 229.787 38.08 230.194 37.435 230.862 37.205 L 235.233 35.692 C 235.316 35.662 235.403 35.642 235.49 35.626 C 235.593 35.398 235.767 35.188 235.991 35.008 C 234.865 34.353 234.111 33.135 234.111 31.739 C 234.111 29.649 235.804 27.956 237.894 27.956 C 239.984 27.956 241.677 29.649 241.677 31.739 Z M 261.818 31.739 C 261.818 33.308 260.863 34.654 259.501 35.228 C 259.718 35.315 259.911 35.425 260.082 35.549 C 260.336 35.502 260.606 35.519 260.866 35.609 L 265.234 37.121 C 265.905 37.352 266.316 38.003 266.269 38.681 C 266.269 38.697 266.269 38.717 266.269 38.737 L 266.269 52.521 C 266.269 53.372 265.578 54.06 264.73 54.06 C 263.878 54.06 263.187 53.372 263.187 52.521 L 263.187 39.672 L 262.459 39.419 L 262.459 69.781 C 262.459 70.786 261.608 71.6 260.556 71.6 C 259.504 71.6 258.653 70.786 258.653 69.781 L 258.653 54.494 C 258.489 54.518 258.322 54.528 258.148 54.528 C 257.995 54.528 257.845 54.518 257.698 54.501 L 257.698 69.867 C 257.698 70.872 256.886 71.687 255.878 71.687 C 255.845 71.687 255.814 71.687 255.784 71.684 C 255.751 71.687 255.718 71.687 255.684 71.687 C 254.632 71.687 253.778 70.872 253.778 69.867 L 253.778 39.502 L 253.05 39.753 L 253.05 52.608 C 253.05 53.459 252.359 54.15 251.507 54.15 C 250.659 54.15 249.968 53.459 249.968 52.608 L 249.968 38.828 C 249.968 38.798 249.968 38.768 249.971 38.734 C 249.934 38.07 250.342 37.432 251.003 37.205 L 255.374 35.692 C 255.621 35.605 255.878 35.585 256.118 35.626 C 256.282 35.492 256.472 35.372 256.689 35.275 C 255.264 34.734 254.252 33.355 254.252 31.739 C 254.252 29.649 255.945 27.956 258.035 27.956 C 260.125 27.956 261.818 29.649 261.818 31.739 Z M 281.959 31.572 C 281.959 32.914 281.261 34.093 280.209 34.764 C 280.45 34.938 280.64 35.145 280.764 35.372 C 280.844 35.388 280.924 35.408 281.004 35.435 L 285.375 36.948 C 286.049 37.178 286.457 37.833 286.41 38.51 C 286.41 38.53 286.41 38.554 286.41 38.574 L 286.41 52.357 C 286.41 53.209 285.719 53.897 284.871 53.897 C 284.019 53.897 283.328 53.209 283.328 52.357 L 283.328 39.499 L 282.607 39.248 L 282.607 69.617 C 282.607 70.622 281.755 71.437 280.7 71.437 C 279.652 71.437 278.797 70.622 278.797 69.617 L 278.797 53.72 C 278.633 53.743 278.463 53.753 278.29 53.753 C 278.136 53.753 277.989 53.743 277.842 53.726 L 277.842 69.697 C 277.842 70.702 277.024 71.517 276.019 71.517 C 275.986 71.517 275.956 71.517 275.925 71.513 C 275.892 71.517 275.859 71.517 275.825 71.517 C 274.77 71.517 273.919 70.702 273.919 69.697 L 273.919 39.335 L 273.191 39.586 L 273.191 52.441 C 273.191 53.292 272.5 53.98 271.648 53.98 C 270.8 53.98 270.109 53.292 270.109 52.441 L 270.109 38.657 C 270.109 38.634 270.109 38.607 270.112 38.584 C 270.072 37.909 270.48 37.268 271.147 37.035 L 275.518 35.522 C 275.605 35.492 275.688 35.472 275.775 35.459 C 275.882 35.228 276.052 35.021 276.273 34.841 C 275.147 34.186 274.393 32.968 274.393 31.572 C 274.393 29.482 276.086 27.789 278.176 27.789 C 280.266 27.789 281.959 29.482 281.959 31.572 Z M 211.649 28.467 L 211.649 71.009 C 211.649 84.926 222.928 96.209 236.849 96.209 L 279.395 96.209 C 293.312 96.209 304.594 84.926 304.594 71.009 L 304.594 28.467 C 304.594 14.55 293.312 3.264 279.395 3.264 L 236.849 3.264 C 222.928 3.264 211.649 14.55 211.649 28.467 Z" style="stroke: rgb(0, 0, 0); stroke-width: 0px; fill: rgb(255, 255, 255);"/>
</svg>