<?xml version="1.0" encoding="UTF-8" standalone="no"?>
<svg
   width="80"
   height="80"
   viewBox="0 0 24 25"
   fill="none"
   transform="rotate(0 0 0)"
   version="1.1"
   id="svg1"
   sodipodi:docname="check-circle.svg"
   inkscape:version="1.3.2 (091e20e, 2023-11-25, custom)"
   xmlns:inkscape="http://www.inkscape.org/namespaces/inkscape"
   xmlns:sodipodi="http://sodipodi.sourceforge.net/DTD/sodipodi-0.dtd"
   xmlns="http://www.w3.org/2000/svg"
   xmlns:svg="http://www.w3.org/2000/svg">
  <defs
     id="defs1" />
  <sodipodi:namedview
     id="namedview1"
     pagecolor="#ffffff"
     bordercolor="#000000"
     borderopacity="0.25"
     inkscape:showpageshadow="2"
     inkscape:pageopacity="0.0"
     inkscape:pagecheckerboard="0"
     inkscape:deskcolor="#d1d1d1"
     inkscape:zoom="10.2625"
     inkscape:cx="39.951279"
     inkscape:cy="40"
     inkscape:window-width="1920"
     inkscape:window-height="1017"
     inkscape:window-x="-8"
     inkscape:window-y="-8"
     inkscape:window-maximized="1"
     inkscape:current-layer="svg1" />
  <path
     d="M 2,12.3906 C 2,6.86778 6.47715,2.39062 12,2.39062 c 5.5228,0 10,4.47716 10,9.99998 0,5.5229 -4.4772,10 -10,10 -5.52285,0 -10,-4.4771 -10,-10 z M 16.938281,9.2150059 c -0.29289,-0.2929 -0.7678,-0.29289 -1.0607,0 l -4.85178,4.8213591 -2.2334777,-2.598876 c -0.29289,-0.2929 -0.76777,-0.2929 -1.06066,0 -0.29289,0.2929 -0.29289,0.7678 10e-6,1.0607 l 2.7638277,3.129176 c 0.2929,0.2929 0.766871,0.292068 1.0606,0 l 5.38218,-5.351729 c 0.29373,-0.292068 0.29291,-0.7677101 0,-1.0606301 z"
     fill="#345437"
     id="path1"
     style="fill:#28a745;fill-opacity:1"
     sodipodi:nodetypes="sssssscccsccsss" />
</svg>
